<?xml version="1.0" encoding="utf-8"?>
<!-- Generator: Adobe Illustrator 19.1.0, SVG Export Plug-In . SVG Version: 6.00 Build 0)  -->
<!DOCTYPE svg PUBLIC "-//W3C//DTD SVG 1.1//EN" "http://www.w3.org/Graphics/SVG/1.1/DTD/svg11.dtd">
<svg version="1.1" id="Слой_1" xmlns="http://www.w3.org/2000/svg" xmlns:xlink="http://www.w3.org/1999/xlink" x="0px" y="0px"
	 viewBox="-217.6 543.8 53.9 15.2" style="enable-background:new -217.6 543.8 53.9 15.2;" xml:space="preserve">
<path d="M-169.7,544.4h-19l0,0v10.9l0,0h18.9c3,0,5.4-2.4,5.4-5.4C-164.3,546.9-166.7,544.5-169.7,544.4z M-183.2,553.3h-3.2l0,0
	v-2.5l0,0h3.2c0.7,0,1.2,0.6,1.2,1.3C-182,552.7-182.5,553.3-183.2,553.3z M-183.2,548.9h-3.2l0,0v-2.5l0,0h3.2
	c0.7,0,1.2,0.6,1.2,1.3S-182.5,548.9-183.2,548.9z M-176.4,553.3h-3.2l0,0v-2.5l0,0h3.2c0.7,0,1.2,0.6,1.2,1.3
	C-175.2,552.7-175.7,553.3-176.4,553.3z M-176.4,548.9h-3.2l0,0v-2.5l0,0h3.2c0.7,0,1.2,0.6,1.2,1.3S-175.7,548.9-176.4,548.9z
	 M-169.7,553.3h-3.1l0,0v-2.5l0,0h3.2c0.7,0,1.2,0.6,1.2,1.3C-168.4,552.7-169,553.3-169.7,553.3z M-169.7,548.9h-3.1l0,0v-2.5l0,0
	h3.2c0.7,0,1.2,0.6,1.2,1.3S-169,548.9-169.7,548.9z"/>
<path d="M-209.8,549.4c0.9-0.4,1.5-1.2,1.5-2.2c0-1.9-1.6-2.7-3.5-2.7h-5.2v10.9h5.4c2,0,3.7-1.1,3.7-3.2
	C-207.8,550.5-208.6,549.7-209.8,549.4z M-214.6,546.3h2.2c0.9,0,1.8,0.2,1.8,1.3s-0.9,1.3-1.8,1.3h-2.2V546.3z M-212.2,553.4h-2.4
	v-3h2.3c1.1,0,2.1,0.2,2.1,1.5C-210.2,553.2-211.1,553.4-212.2,553.4z"/>
<rect x="-206.3" y="544.4" width="2.2" height="1.8"/>
<rect x="-206.3" y="547.4" width="2.2" height="7.9"/>
<path d="M-196.9,548.5c-0.6-0.9-1.3-1.3-2.4-1.3c-2.1,0-3.5,1.6-3.5,4s1.3,3.9,3.4,3.9c1,0,1.8-0.4,2.4-1.2v0.9c0,1.3-0.3,2-1.7,2
	c-0.9,0-1.4-0.3-1.6-1h-2.2c0.2,1.7,1.4,2.5,3.7,2.5c2.6,0,3.9-1.1,3.9-3.8v-7.1h-2L-196.9,548.5L-196.9,548.5z M-198.7,553.4
	c-1.1,0-1.8-0.9-1.8-2.3c0-1.4,0.7-2.3,1.8-2.3s1.8,0.8,1.8,2.2C-196.9,552.6-197.6,553.4-198.7,553.4z"/>
</svg>
